<svg width="161" height="169" viewBox="0 0 161 169" fill="none" xmlns="http://www.w3.org/2000/svg">
<path d="M4.87788 76.898C0.273884 77.819 -0.47212 78.565 -1.39212 83.168C-2.31312 78.564 -3.05911 77.818 -7.66211 76.898C-3.05811 75.977 -2.31212 75.231 -1.39212 70.628C-0.47212 75.231 0.273884 75.977 4.87788 76.898Z" fill="#E4D905"/>
<path d="M47.7832 61.024C45.8102 61.419 45.4902 61.738 45.0962 63.711C44.7012 61.738 44.3822 61.418 42.4092 61.024C44.3822 60.629 44.7022 60.31 45.0962 58.337C45.4902 60.31 45.8102 60.629 47.7832 61.024Z" fill="#E4D905"/>
<path d="M84.7661 7.166C79.5051 8.218 78.6521 9.071 77.6001 14.332C76.5481 9.071 75.6951 8.218 70.4341 7.166C75.6951 6.114 76.5481 5.261 77.6001 0C78.6511 5.261 79.5041 6.114 84.7661 7.166Z" fill="#E4D905"/>
<path d="M111.817 42.329C106.258 43.441 105.356 44.342 104.245 49.901C103.133 44.342 102.232 43.44 96.6729 42.329C102.232 41.217 103.134 40.316 104.245 34.757C105.357 40.316 106.258 41.217 111.817 42.329Z" fill="#E4D905"/>
<path d="M137.07 107.512C133.782 108.17 133.249 108.703 132.591 111.991C131.933 108.703 131.4 108.17 128.112 107.512C131.4 106.854 131.933 106.321 132.591 103.033C133.249 106.322 133.782 106.855 137.07 107.512Z" fill="#E4D905"/>
<path d="M160.294 115.827C157.992 116.287 157.619 116.66 157.159 118.962C156.699 116.66 156.326 116.287 154.024 115.827C156.326 115.367 156.699 114.994 157.159 112.692C157.619 114.994 157.992 115.367 160.294 115.827Z" fill="#E4D905"/>
<path d="M134.943 143.796C130.997 144.585 130.357 145.225 129.568 149.17C128.779 145.224 128.139 144.585 124.193 143.796C128.139 143.007 128.778 142.367 129.568 138.422C130.357 142.367 130.997 143.007 134.943 143.796Z" fill="#E4D905"/>
<path d="M80.5459 52.804C78.2439 53.264 77.8709 53.637 77.4109 55.939C76.9509 53.637 76.5779 53.264 74.2759 52.804C76.5779 52.344 76.9509 51.971 77.4109 49.669C77.8709 51.97 78.2439 52.343 80.5459 52.804Z" fill="#E4D905"/>
<path d="M139.463 71.985C134.859 72.905 134.113 73.652 133.193 78.255C132.272 73.651 131.526 72.905 126.923 71.985C131.526 71.064 132.273 70.318 133.193 65.715C134.113 70.318 134.859 71.064 139.463 71.985Z" fill="#E4D905"/>
<path d="M63.5088 25.591C59.5628 26.38 58.9228 27.02 58.1338 30.966C57.3448 27.02 56.7048 26.38 52.7598 25.591C56.7058 24.802 57.3448 24.162 58.1338 20.217C58.9238 24.162 59.5638 24.802 63.5088 25.591Z" fill="#E4D905"/>
<path d="M31.5522 20.488C28.5932 21.08 28.1132 21.56 27.5212 24.519C26.9292 21.56 26.4492 21.08 23.4902 20.488C26.4492 19.896 26.9292 19.417 27.5212 16.457C28.1122 19.417 28.5922 19.897 31.5522 20.488Z" fill="#E4D905"/>
<path d="M31.5972 163.922C27.9802 164.645 27.3942 165.232 26.6702 168.849C25.9472 165.232 25.3602 164.646 21.7432 163.922C25.3602 163.199 25.9462 162.612 26.6702 158.995C27.3942 162.612 27.9802 163.198 31.5972 163.922Z" fill="#E4D905"/>
<path d="M26.4951 47.701C22.8781 48.424 22.2921 49.011 21.5681 52.628C20.8451 49.011 20.2581 48.425 16.6411 47.701C20.2581 46.978 20.8441 46.391 21.5681 42.774C22.2911 46.391 22.8781 46.978 26.4951 47.701Z" fill="#E4D905"/>
</svg>
