<svg width="405" height="159" viewBox="0 0 405 159" fill="none" xmlns="http://www.w3.org/2000/svg">
<path d="M404.135 156.312C335.833 145.522 283.941 116.481 252.656 94.2539C263.781 87.5766 274.077 79.257 283.202 69.4314C296.327 55.2985 302.184 39.7461 299.271 26.7637C297.17 17.3957 290.732 10.1215 281.144 6.2817C258.634 -2.73599 243.571 11.6089 239.376 16.3686C237.278 12.4343 230.614 3.00131 214.102 0.432609C201.454 -1.53443 189.722 3.29947 183.485 13.0486C175.94 24.8421 177.734 40.8102 188.406 56.8592C202.864 78.6022 228.599 94.6421 228.858 94.8017L229.412 95.1437L229.989 94.8376C230.447 94.5935 234.851 92.2177 240.459 88.1232C242.956 90.0607 245.641 92.0847 248.506 94.1712C230.037 104.745 205.688 112.856 175.488 111.048C131.868 108.434 65.0946 80.0367 -11.2851 45.988C-82.0938 14.421 -123.486 24.5307 -141.161 28.8496L-140.942 29.9661L-140.621 31.0577C-123.172 26.7954 -82.3087 16.8148 -12.2096 48.0637C51.1623 76.3133 107.95 100.683 150.59 109.747C159.481 111.637 167.761 112.861 175.353 113.317C201.783 114.9 227.749 108.6 250.428 95.5613C258.205 101.143 267.25 107.141 277.506 113.169C316.781 136.256 359.266 151.528 403.78 158.556L404.135 156.312ZM240.494 85.1962C230.53 77.4132 223.858 71.2449 220.729 68.2218C212.309 60.0814 208.972 51.7377 211.574 45.3315C213.335 40.9977 217.668 38.2085 222.615 38.2237C223.734 38.2269 224.777 38.344 225.748 38.5505C233.856 40.2739 236.942 48.2399 237.083 48.6174L237.936 50.8907L239.136 48.7818C243.334 41.3964 251.357 39.9351 257.12 42.3113C261.437 44.0919 265.345 48.5876 263.367 55.8665C259.993 68.2885 249.128 78.6376 240.494 85.1962ZM250.727 92.8729C247.752 90.7282 244.973 88.654 242.399 86.6735C251.206 79.9295 262.047 69.3874 265.56 56.4616C267.509 49.2903 264.537 42.9107 257.986 40.2104C251.949 37.7213 243.337 38.9959 238.289 45.9091C236.436 42.5578 231.651 35.9799 222.623 35.9509C216.743 35.9325 211.581 39.2784 209.469 44.4762C206.499 51.7859 210.028 61.0369 219.15 69.855C222.633 73.222 229.164 79.2335 238.554 86.6332C234.285 89.7254 230.815 91.7652 229.493 92.5135C225.682 90.0596 203.301 75.158 190.298 55.6001C180.147 40.3359 178.362 25.2722 185.399 14.2733C191.143 5.29396 202.008 0.850748 213.753 2.6781C214.615 2.81261 215.448 2.96528 216.253 3.13632C233.381 6.77702 237.851 18.3562 238.039 18.8677L238.773 20.8824L240.028 19.143C240.644 18.2922 255.369 -1.59106 280.297 8.39018C289.168 11.9428 295.119 18.6441 297.052 27.2596C299.798 39.5003 294.143 54.3068 281.534 67.8838C274.671 75.2779 264.397 84.6988 250.727 92.8729Z" fill="#E4D905"/>
</svg>
