<svg width="336" height="382" viewBox="0 0 336 382" fill="none" xmlns="http://www.w3.org/2000/svg">
<path d="M410.597 -0.00033873C363.458 50.5903 310.364 77.3725 274.442 90.8795C275.128 77.9218 273.988 64.7337 270.945 51.6748C266.568 32.8903 256.949 19.3381 244.558 14.4932C235.616 10.9967 225.986 12.2662 217.44 18.0683C197.377 31.6874 200.846 52.1965 202.447 58.3356C198.012 57.8749 186.465 58.125 175.102 70.3772C166.399 79.7629 163.846 92.1923 168.44 102.815C173.998 115.665 188.24 123.107 207.513 123.234C233.624 123.406 261.312 111.04 261.589 110.915L262.183 110.646L262.251 109.998C262.305 109.481 262.798 104.502 262.54 97.5624C265.542 96.5758 268.722 95.4814 272.054 94.2731C270.491 115.498 263.601 140.219 245.213 164.245C218.655 198.947 157.773 238.424 86.8343 282.706C21.0684 323.757 6.3034 363.726 0.000359779 380.794L1.04854 381.237L2.13297 381.581C8.35665 364.732 22.9328 325.274 88.0382 284.633C146.895 247.893 198.854 214.441 230.212 184.159C236.751 177.845 242.396 171.665 247.019 165.626C263.111 144.6 272.408 119.55 274.281 93.457C283.257 90.1309 293.287 85.986 304.02 80.8545C345.122 61.2045 381.54 34.5227 412.259 1.54906L410.597 -0.00033873ZM260.132 95.8972C248.108 99.8048 239.263 101.888 235.008 102.79C223.551 105.219 214.767 103.32 210.911 97.5805C208.303 93.6971 208.414 88.5449 211.193 84.4526C211.821 83.5266 212.501 82.7277 213.216 82.0378C219.178 76.2798 227.508 78.1762 227.9 78.2698L230.262 78.8342L229.184 76.6602C225.409 69.0495 228.684 61.5812 233.877 58.1321C237.767 55.549 243.679 54.8229 248.608 60.5332C257.019 70.2771 259.523 85.0712 260.132 95.8972ZM272.219 91.7062C268.778 92.9728 265.504 94.117 262.423 95.1432C261.756 84.0712 259.079 69.1881 250.327 59.0477C245.472 53.4223 238.521 52.319 232.619 56.2394C227.179 59.853 223.42 67.705 226.329 75.7561C222.514 75.418 214.385 75.7068 209.313 83.1751C206.01 88.0393 205.897 94.1903 209.025 98.8478C213.424 105.397 223.067 107.645 235.479 105.013C240.218 104.008 248.854 101.955 260.239 98.3089C260.415 103.577 260.166 107.595 260.047 109.109C255.882 110.896 231.012 121.118 207.527 120.962C189.196 120.841 175.71 113.897 170.526 101.913C166.294 92.1297 168.686 80.6378 176.768 71.9227C177.362 71.2829 177.955 70.6777 178.546 70.1063C191.143 57.9423 203.242 60.7112 203.771 60.8418L205.852 61.3595L205.111 59.3464C204.75 58.3606 196.5 35.0343 218.715 19.9492C226.621 14.5811 235.504 13.395 243.728 16.6106C255.411 21.1788 264.524 34.1468 268.729 52.1921C271.021 62.0165 273.086 75.8025 272.219 91.7062Z" fill="#4B164C"/>
</svg>
