<svg width="480" height="140" viewBox="0 0 480 140" fill="none" xmlns="http://www.w3.org/2000/svg">
<path d="M479.908 137.568C419.797 128.072 374.126 102.514 346.593 82.9522C356.385 77.0757 365.446 69.7536 373.476 61.1063C385.028 48.6681 390.182 34.9807 387.619 23.555C385.769 15.3104 380.104 8.90851 371.665 5.52913C351.854 -2.4072 338.598 10.2175 334.906 14.4065C333.06 10.944 327.194 2.64211 312.663 0.381437C301.532 -1.34972 291.206 2.90452 285.717 11.4846C279.076 21.8639 280.655 35.9172 290.048 50.0417C302.772 69.1774 325.421 83.2939 325.649 83.4343L326.137 83.7354L326.644 83.4659C327.048 83.2511 330.923 81.1601 335.859 77.5567C338.057 79.2618 340.42 81.0431 342.941 82.8794C326.686 92.1852 305.258 99.324 278.679 97.7321C240.289 95.4322 181.523 70.4399 114.302 40.4741C51.9848 12.6924 15.5559 21.5899 0.00068006 25.3908L0.193604 26.3734L0.476033 27.3341C15.8325 23.5829 51.7957 14.7992 113.489 42.3009C169.262 67.163 219.239 88.6106 256.766 96.5872C264.591 98.2505 271.878 99.3281 278.56 99.7291C301.821 101.123 324.673 95.5777 344.633 84.1029C351.477 89.0152 359.438 94.2936 368.464 99.5992C403.029 119.918 440.419 133.358 479.595 139.544L479.908 137.568ZM335.889 74.9807C327.121 68.1309 321.248 62.7023 318.495 60.0418C311.085 52.8775 308.147 45.5343 310.438 39.8963C311.987 36.0822 315.801 33.6274 320.155 33.6408C321.139 33.6437 322.057 33.7467 322.912 33.9284C330.048 35.4452 332.763 42.456 332.888 42.7882L333.638 44.7889L334.694 42.9329C338.389 36.4331 345.45 35.147 350.522 37.2382C354.321 38.8054 357.761 42.762 356.02 49.168C353.05 60.1004 343.489 69.2085 335.889 74.9807ZM344.895 81.7368C342.278 79.8493 339.832 78.0238 337.567 76.2808C345.317 70.3455 354.859 61.0676 357.95 49.6918C359.665 43.3804 357.049 37.7658 351.284 35.3893C345.971 33.1986 338.392 34.3204 333.949 40.4046C332.318 37.4552 328.107 31.6661 320.162 31.6406C314.987 31.6244 310.443 34.5691 308.585 39.1436C305.971 45.5767 309.077 53.7184 317.105 61.4791C320.171 64.4423 325.919 69.7329 334.182 76.2453C330.425 78.9667 327.371 80.762 326.208 81.4205C322.854 79.2609 303.157 66.1461 291.712 48.9336C282.779 35.4997 281.208 22.2424 287.401 12.5624C292.457 4.65984 302.019 0.749434 312.355 2.35766C313.114 2.47604 313.847 2.6104 314.555 2.76093C329.63 5.96505 333.564 16.1557 333.729 16.6059L334.375 18.379L335.48 16.8482C336.021 16.0994 348.981 -1.39957 370.92 7.38478C378.727 10.5114 383.965 16.4092 385.665 23.9914C388.082 34.7644 383.105 47.7953 372.008 59.7443C365.969 66.2517 356.926 74.5429 344.895 81.7368Z" fill="#E4D905"/>
</svg>
