<svg width="458" height="114" viewBox="0 0 458 114" fill="none" xmlns="http://www.w3.org/2000/svg">
<path d="M-34.8954 107.21C25.8766 110.419 75.8627 94.9153 106.862 81.5053C98.5057 73.7213 91.1647 64.6753 85.1077 54.5473C76.3947 39.9793 74.1987 25.5193 79.0817 14.8763C82.6047 7.19633 89.4777 2.11233 98.4347 0.561328C119.463 -3.08267 129.805 12.0223 132.545 16.8873C135.071 13.8843 142.534 6.98334 157.218 7.79334C168.466 8.41434 177.681 14.7223 181.267 24.2563C185.604 35.7893 181.138 49.2073 169.014 61.0703C152.589 77.1423 127.5 86.2413 127.248 86.3313L126.708 86.5243L126.268 86.1553C125.918 85.8613 122.562 83.0103 118.483 78.4593C115.979 79.6703 113.297 80.9213 110.449 82.1933C124.414 94.6753 143.89 106.113 170.219 110.082C208.248 115.814 270.926 103.586 342.908 88.2513C409.64 74.0333 443.423 90.3103 457.848 97.2623L457.455 98.1833L456.979 99.0643C442.738 92.2023 409.387 76.1333 343.324 90.2073C283.601 102.93 230.256 113.518 191.891 113.518C183.891 113.518 176.539 113.057 169.92 112.06C146.878 108.587 125.678 98.4123 108.54 83.0383C100.824 86.4203 91.9397 89.9283 82.0077 93.2413C43.9737 105.929 4.60566 111.302 -35.0003 109.207L-34.8954 107.21ZM118.989 75.9333C128.99 71.0563 135.863 66.9673 139.109 64.9373C147.847 59.4703 152.247 52.8983 151.179 46.9073C150.456 42.8543 147.236 39.6603 142.975 38.7683C142.011 38.5663 141.092 38.4763 140.218 38.4763C132.923 38.4763 128.809 44.7693 128.618 45.0683L127.468 46.8693L126.821 44.8343C124.558 37.7083 117.919 34.9823 112.523 35.9733C108.481 36.7163 104.294 39.8713 104.665 46.4993C105.297 57.8103 112.756 68.7073 118.989 75.9333ZM108.775 80.6693C111.728 79.3673 114.5 78.0903 117.078 76.8563C110.731 69.4393 103.327 58.3803 102.668 46.6103C102.303 40.0803 106.029 35.1323 112.162 34.0063C117.815 32.9683 124.995 35.6413 128.076 42.5163C130.284 39.9703 135.607 35.1833 143.384 36.8103C148.449 37.8703 152.281 41.6953 153.148 46.5563C154.367 53.3923 149.636 60.7103 140.17 66.6323C136.555 68.8933 129.833 72.8733 120.396 77.5253C123.505 80.9683 126.119 83.3593 127.12 84.2453C130.85 82.8303 152.843 74.0973 167.616 59.6403C179.147 48.3573 183.44 35.7163 179.395 24.9603C176.093 16.1793 167.553 10.3663 157.108 9.79033C156.341 9.74833 155.596 9.72733 154.872 9.72733C139.461 9.72733 133.494 18.8773 133.239 19.2833L132.238 20.8833L131.476 19.1563C131.102 18.3113 122.064 -1.49967 98.7776 2.53133C90.4906 3.96633 84.1416 8.64634 80.9016 15.7093C76.2976 25.7443 78.4567 39.5253 86.8267 53.5203C91.3817 61.1413 98.5027 71.1313 108.775 80.6693Z" fill="#4B164C"/>
</svg>
